<?xml version="1.0" encoding="utf-8"?>
<!-- Generator: Adobe Illustrator 24.1.0, SVG Export Plug-In . SVG Version: 6.00 Build 0)  -->
<svg version="1.1" id="Capa_1" xmlns="http://www.w3.org/2000/svg" xmlns:xlink="http://www.w3.org/1999/xlink" x="0px" y="0px"
	 viewBox="0 0 25 25" style="enable-background:new 0 0 25 25;" xml:space="preserve">
<style type="text/css">
	.st0{fill:#04C4D9;}
</style>
<desc>Created using Figma</desc>
<g id="Canvas" transform="translate(-4909 -2758)">
	<g id="noun_376938_cc">
		<g id="Group_2_">
			<g id="Group_1_">
				<g id="Group">
					<g id="Vector">
						<g transform="translate(4909 2758)">
							<path id="path0_fill" class="st0" d="M12.5,0C9.2,0,6,1.3,3.7,3.7S0,9.2,0,12.5s1.3,6.5,3.7,8.8S9.2,25,12.5,25
								s6.5-1.3,8.8-3.7s3.7-5.5,3.7-8.8S23.7,6,21.3,3.7S15.8,0,12.5,0L12.5,0z M12.5,6c2.8,0,5,2.2,5,5c0,3.8-3.6,7.4-4.6,8.4
								l-0.4,0.4l-0.4-0.4c-1-1-4.6-4.5-4.6-8.4C7.5,8.2,9.7,6,12.5,6z M12.5,7c-2.2,0-4,1.8-4,4c0,2.9,2.8,6,4,7.2
								c1.2-1.2,4-4.3,4-7.2C16.5,8.8,14.7,7,12.5,7z M12.5,9c1.1,0,2,0.9,2,2s-0.9,2-2,2s-2-0.9-2-2S11.4,9,12.5,9z M12.5,10
								c-0.6,0-1,0.4-1,1s0.4,1,1,1s1-0.4,1-1S13.1,10,12.5,10z"/>
						</g>
					</g>
				</g>
			</g>
		</g>
	</g>
</g>
</svg>
